<svg xmlns="http://www.w3.org/2000/svg" xmlns:xlink="http://www.w3.org/1999/xlink" width="553" height="450" viewBox="0 0 553 450">
  <defs>
    <clipPath id="clip-path">
      <rect id="Rectangle_768" data-name="Rectangle 768" width="553" height="450" transform="translate(132 749)" fill="#185742"/>
    </clipPath>
    <clipPath id="clip-path-2">
      <path id="Path_92" data-name="Path 92" d="M71.224,822.935C5.821,803.385.142,754.69,62.3,748.443c61.388-6.171,162.375,30.8,223.69,50.284,0,0-99.8,29.233-171.965,29.236-16.121,0-30.859-1.459-42.8-5.027M749.732,0c-10.026,17.934-17.745,34.84-28.18,49.852-39.952,57.47-79.92,114.965-121.492,171.259C544.31,296.6,495.722,375.752,464.651,464.878c-8.05,23.081-15.062,46.382-21.2,69.872v-.041c-25.12,73.393-56.455,208.413-134.91,249.459-8.718,4.561-41.872-16.4-48.531-19.626-54.542-26.425-199.068-96.278-247.12-27.975C4.759,748.118.044,761.04,0,773.758v.334c.079,26.409,20.348,51.872,72.025,62.3a291.283,291.283,0,0,0,57.082,5.456h1.128c43.823-.073,85.65-8.519,117.679-16.969,33.494-8.834,56.266-17.669,59.393-16.928L337.095,796.5s26.718-4.334,63.685-32.93l132.291-109.6h-.01c56.688-48.7,108.365-102.516,153.089-163.244,2.509-3.4,4.942-6.858,8.1-11.255-22.435,5.55-42.833,11.318-63.544,15.548-34.238,6.994-48.869,7.17-62.547,2.493,2.588-1.1,4.794-2,6.962-2.972a693.737,693.737,0,0,0,143.552-86.873c16.471-12.91,29.022-28.48,33.258-49.115,6.978-34.03,13.216-68.227,19.094-102.465,2.027-11.816,2.049-23.979,3.048-36.756-30.988,3.952-59.878,8.7-86.1,24.521,6.36-9.279,12.938-18.2,20.736-25.9C725.832,201.072,743.753,185,760.9,168.142c3.691-3.631,7.851-9.162,7.851-13.818C768.75,102.919,762.074,52.257,749.732,0Z" fill="#266d55"/>
    </clipPath>
  </defs>
  <g id="Mask_Group_3" data-name="Mask Group 3" transform="translate(-132 -749)" clip-path="url(#clip-path)">
    <g id="Group_14544" data-name="Group 14544" transform="translate(-497.038 763.059)">
      <g id="Group_14543" data-name="Group 14543" clip-path="url(#clip-path-2)">
        <rect id="Rectangle_767" data-name="Rectangle 767" width="1105.688" height="1077.341" transform="translate(-347.286 658.769) rotate(-62.203)" fill="#266d55"/>
      </g>
    </g>
  </g>
</svg>
