<svg xmlns="http://www.w3.org/2000/svg" xmlns:xlink="http://www.w3.org/1999/xlink" width="700" height="800" viewBox="0 0 700 800">
  <defs>
    <clipPath id="clip-path">
      <rect id="banner" width="700" height="800" fill="#185742"/>
    </clipPath>
    <clipPath id="clip-path-2">
      <path id="Path_91" data-name="Path 91" d="M343.723,3.108C269.011,12.5,198.375,42.789,138.417,88.07c-69.2,52.261-118.9,119.951-134.389,205.955C-7.916,360.376,3.6,442.043,81.112,458.278c76.284,15.978,156.36-52.151,181.91-119.083,12.321-32.275,21.19-78.1-7.8-104.393-26.769-24.278-74.877-21.961-101.669,1.029-15.59,13.38-27.947,36.29-21.606,57.2,10.937,36.028,70.491,35.25,70.491-6.483a29.088,29.088,0,0,0-29.087-29.09,29.523,29.523,0,0,0-6.012.636c14.351-16.133,36.935-29.19,58.809-26.027C303.793,243.3,255.5,356.58,224.037,391.4c-34.386,38.058-91.39,69.1-143.093,48.943-137.094-53.436,16.649-271.08,77.071-324.4,82.667-72.96,184.117-109.527,292.9-92.756,2.165-5.767,8.007-11.373,11.053-16.688A366.913,366.913,0,0,0,392.789,0a393.152,393.152,0,0,0-49.066,3.108" transform="translate(0)" fill="#266d55"/>
    </clipPath>
  </defs>
  <g id="Mask_Group_2" data-name="Mask Group 2" clip-path="url(#clip-path)">
    <g id="Group_14542" data-name="Group 14542" transform="translate(469.273 -138.949)">
      <g id="Group_14541" data-name="Group 14541" transform="translate(0)" clip-path="url(#clip-path-2)">
        <rect id="Rectangle_766" data-name="Rectangle 766" width="661.149" height="679.494" transform="translate(-251.794 371.118) rotate(-62.203)" fill="#266d55"/>
      </g>
    </g>
  </g>
</svg>
