<?xml version="1.0" encoding="utf-8"?>
<!-- Generator: Adobe Illustrator 27.8.1, SVG Export Plug-In . SVG Version: 6.00 Build 0)  -->
<svg version="1.1" id="Layer_1" xmlns="http://www.w3.org/2000/svg" xmlns:xlink="http://www.w3.org/1999/xlink" x="0px" y="0px"
	 viewBox="0 0 283.68 423.3" style="enable-background:new 0 0 283.68 423.3;" xml:space="preserve">
<style type="text/css">
	.st0{fill:url(#SVGID_1_);}
	.st1{fill:url(#SVGID_00000160184644413099370060000015142570929312876173_);}
	.st2{fill:#fff;}
</style>
<g>
	<radialGradient id="SVGID_1_" cx="260.3023" cy="-21.331" r="315.2878" gradientUnits="userSpaceOnUse">
		<stop  offset="0" style="stop-color:#E29025"/>
		<stop  offset="0.6194" style="stop-color:#E26F26"/>
		<stop  offset="1" style="stop-color:#E25A26"/>
	</radialGradient>
	<path class="st0" d="M72.01,187.27c23.64,4.95,48.45-16.16,56.37-36.9c3.82-10,6.57-24.2-2.42-32.35c-8.29-7.52-23.2-6.8-31.5,0.32
		c-4.83,4.15-8.66,11.25-6.7,17.72c3.39,11.16,21.84,10.92,21.84-2.01c0-4.98-4.04-9.01-9.01-9.01c-0.64,0-1.26,0.07-1.86,0.2
		c4.45-5,11.44-9.05,18.22-8.07c24.06,3.48,9.1,38.58-0.65,49.37c-10.66,11.79-28.32,21.41-44.34,15.17
		c-42.48-16.56,5.16-84,23.88-100.52c25.62-22.61,57.05-33.94,90.76-28.74c0.67-1.79,2.48-3.52,3.42-5.17
		c-11.63-2.23-23.91-2.65-36.64-1.05c-23.15,2.91-45.04,12.3-63.62,26.33c-21.44,16.19-36.84,37.17-41.64,63.82
		C44.42,156.94,47.99,182.24,72.01,187.27z"/>
	
		<radialGradient id="SVGID_00000137841469924337924500000010550724177519367562_" cx="260.3023" cy="-21.331" r="315.2878" gradientUnits="userSpaceOnUse">
		<stop  offset="0" style="stop-color:#E19026"/>
		<stop  offset="0.6215" style="stop-color:#E26F26"/>
		<stop  offset="1" style="stop-color:#E25A26"/>
	</radialGradient>
	<path style="fill:url(#SVGID_00000137841469924337924500000010550724177519367562_);" d="M266.05,101.88
		c-1.53-2.51-3.12-4.94-4.77-7.3c-1.87-2.67-3.96-5.3-6.23-7.87c-0.25,4.49-0.04,11.37-2.34,15.51
		c8.88,17.52,11.59,33.87,11.59,53.39c0,17.07-4.18,33.47-12.55,49.22c-9.8,18.61-23.67,31.93-41.62,39.97
		c-11.67,5.28-39.61,12.51-58.32,12.51c-7.38,0-30.46,0-44.86-4.58c0,0,8.48-1.38,20.21-10.45l41.97-34.77l0,0
		c17.99-15.45,34.38-32.53,48.57-51.79c0.8-1.08,1.57-2.18,2.57-3.57c-7.12,1.76-13.59,3.59-20.16,4.93
		c-10.86,2.22-15.5,2.27-19.84,0.79c0.82-0.35,1.52-0.63,2.21-0.94c16.3-7.34,31.47-16.53,45.55-27.56
		c5.23-4.1,9.21-9.04,10.55-15.58c2.21-10.8,4.19-21.65,6.06-32.51c0.64-3.75,0.65-7.61,0.97-11.66c-9.83,1.25-19,2.76-27.32,7.78
		c2.02-2.94,4.11-5.78,6.58-8.22c5.43-5.36,11.12-10.46,16.56-15.8c1.17-1.15,2.49-2.91,2.49-4.38c0-16.31-2.12-32.38-6.03-48.96
		c-3.18,5.69-5.63,11.05-8.94,15.82c-12.68,18.23-25.36,36.48-38.55,54.34c-17.69,23.95-33.1,49.06-42.96,77.34
		c-2.55,7.32-4.78,14.72-6.73,22.17l0-0.01c-7.97,23.29-17.91,66.12-42.8,79.15c-2.77,1.45-13.28-5.2-15.4-6.23
		c-17.3-8.38-63.16-30.55-78.41-8.88c-7.96,11.31-5.6,26.76,18.76,31.67c34.74,7.01,72.29-9.58,74.65-9.02
		c15.3,3.63,34.3,5.45,56.98,5.45c40.44,0,86.89-8.06,111.91-43.34C291.21,183.44,287.72,137.49,266.05,101.88z M22.6,261.1
		c-20.75-6.2-22.55-21.65-2.83-23.63c19.48-1.96,51.52,9.77,70.97,15.95C90.74,253.42,43.35,267.3,22.6,261.1z"/>
</g>
<g>
	<g>
		<path class="st2" d="M68.22,335.66c0,21.12-15.46,35.47-38.4,35.47H0v-70.84h30.52C52.96,300.29,68.22,314.64,68.22,335.66z
			 M49.32,335.86c0-12.23-7.98-20.52-19.2-20.52H18.49v40.83h12.53C41.74,356.18,49.32,347.99,49.32,335.86z"/>
		<path class="st2" d="M122.69,358.6H92.07l-4.95,12.53h-19l30.42-70.84h19l29.71,70.84h-19.71L122.69,358.6z M117.23,344.45
			l-9.7-25.27l-9.9,25.27H117.23z"/>
		<path class="st2" d="M196.16,371.13l-10.31-19.61h-0.4h-13.34v19.61h-18.49v-70.84h31.83c18.8,0,29.51,9.1,29.51,24.86
			c0,10.71-4.45,18.6-12.63,22.84l14.75,23.14H196.16z M172.11,336.77h13.44c7.48,0,11.82-3.84,11.82-11.02
			c0-6.97-4.35-10.71-11.82-10.71h-13.44V336.77z"/>
		<path class="st2" d="M282.67,300.29v14.75h-37.39v13.24h33.75v14.65l-33.75,0.1v13.34h38.4v14.75h-56.9v-70.84H282.67z"/>
	</g>
	<g>
		<path class="st2" d="M29.26,407.24c0,9.1-6.87,15.61-16.51,15.61H0v-31.23h12.98C22.44,391.62,29.26,398.09,29.26,407.24z
			 M23.15,407.28c0-6.11-4.42-10.39-10.26-10.39H5.98v20.7h7.14C18.87,417.59,23.15,413.35,23.15,407.28z"/>
		<path class="st2" d="M80.8,391.62v5.22H63.89v7.72h15.17v5.22H63.89v7.85h17.44v5.22H57.91v-31.23H80.8z"/>
		<path class="st2" d="M121.09,396.58c-2.81,0-4.64,1.07-4.64,3.03c0,6.47,16.77,2.99,16.73,14.32c0,5.84-5.08,9.28-11.95,9.28
			c-5,0-9.86-2.01-13.2-5l2.5-5.09c3.21,2.94,7.45,4.68,10.8,4.68c3.35,0,5.35-1.34,5.35-3.57c0-6.6-16.77-2.85-16.77-14.1
			c0-5.49,4.68-9.01,11.69-9.01c4.15,0,8.3,1.34,11.29,3.3l-2.41,5.22C127.11,397.6,123.5,396.58,121.09,396.58z"/>
		<path class="st2" d="M168.26,391.62v31.23h-5.98v-31.23H168.26z"/>
		<path class="st2" d="M220.55,407.33h5.22v11.87c-3.21,2.41-8.03,4.1-12.36,4.1c-9.32,0-16.5-7.05-16.5-16.1
			c0-9.01,7.32-15.97,16.86-15.97c4.5,0,9.1,1.74,12.22,4.51l-3.39,4.42c-2.36-2.23-5.67-3.57-8.83-3.57
			c-6.02,0-10.75,4.68-10.75,10.62c0,6.02,4.77,10.71,10.8,10.71c2.14,0,4.59-0.71,6.74-1.96V407.33z"/>
		<path class="st2" d="M283.68,391.62v31.23h-5.67l-16.06-21.5v21.5h-5.84v-31.23h5.67l16.1,21.55v-21.55H283.68z"/>
	</g>
</g>
</svg>
